# xmcd
#
# Track frame offsets:
#	150
#	15618
#	30707
#	50671
#	72589
#	91197
#	105913
#	123437
#	141753
#	154448
#	179069
#
# Disc length: 2588 seconds
#
# Revision: 3
# Processed by: cddbd v1.5.2PL0 Copyright (c) Steve Scherf et al.
# Submitted via: EasyCDDAExtractor 15.3.0.1
#
DISCID=980a1a0b
DTITLE=Alejandro Fernandez - Confidencias
DYEAR=2013
DGENRE=Latin
TTITLE0=Te Quiero, Te Quiero
TTITLE1=A Pesar De Todo
TTITLE2=Concavo Y Convexo
TTITLE3=Hoy Tengo Ganas De Ti (Featuring Christina Aguilera)
TTITLE4=Procuro Olvidarte
TTITLE5=Porque Te Vas
TTITLE6=Nobody Knows When You're Down And Out (Featuring Rod Stewart)
TTITLE7=Cenizas
TTITLE8=Desahogo
TTITLE9=Me Olvide De Vivir (Featuring Vicente Fernandez)
TTITLE10=Olvidarte
EXTD=YEAR: 2013
EXTT0=
EXTT1=
EXTT2=
EXTT3=
EXTT4=
EXTT5=
EXTT6=
EXTT7=
EXTT8=
EXTT9=
EXTT10=
PLAYORDER=
